# xmcd CD database file
#
# Track frame offsets:
#	187
#	20547
#	36582
#	56300
#	75812
#	92615
#	110667
#	133315
#	150367
#	169155
#
# Disc length: 2537 seconds
#
# Revision: 0
# Processed by: cddbd v1.5.1PL0 Copyright (c) Steve Scherf et al.
# Submitted via: CDex 1.51
#
DISCID=7409e70a
DTITLE=Ya! - 麻田華子
DYEAR=1900
DGENRE=JPop
TTITLE0=Ya!
TTITLE1=まけない
TTITLE2=ファーストシーンはさよならで
TTITLE3=彼女にかまわないで
TTITLE4=悲しき15才(フィフティーン)
TTITLE5=氷の瞳
TTITLE6=H.S.
TTITLE7=1人でいいもん
TTITLE8=DON. DON.
TTITLE9=風より速く
EXTD=
EXTT0=
EXTT1=
EXTT2=
EXTT3=
EXTT4=
EXTT5=
EXTT6=
EXTT7=
EXTT8=
EXTT9=
PLAYORDER=
